<?xml version="1.0" encoding="utf-8"?>
<!-- Generator: Adobe Illustrator 26.4.1, SVG Export Plug-In . SVG Version: 6.00 Build 0)  -->
<svg version="1.1" id="katman_1" xmlns="http://www.w3.org/2000/svg" xmlns:xlink="http://www.w3.org/1999/xlink" x="0px" y="0px"
	 viewBox="0 0 178 49" style="enable-background:new 0 0 178 49;" xml:space="preserve">
<style type="text/css">
	.st0{fill:#111111;}
	.st1{fill:url(#SVGID_1_);}
	.st2{fill:url(#SVGID_00000104681488051803449740000003872165159355488406_);}
	.st3{fill:url(#SVGID_00000029756541913992331710000009118059739625129633_);}
	.st4{fill:url(#SVGID_00000044897257734206756560000017687856164896095669_);}
	.st5{fill:url(#SVGID_00000111149876282718737930000007616362904967401623_);}
</style>
<path class="st0" d="M70.2,34.6v-8.3L63,13.8H67l5.1,9.2h0.1l5.1-9.2h4.1L74,26.3v8.3L70.2,34.6L70.2,34.6z"/>
<path class="st0" d="M82.4,31.3V16.7c0-2,1.2-2.9,3.1-2.9h10.8c2.3,0,3,1.4,3,3.8v13.5c0,1.9-1.2,3.6-3.6,3.6h-9.9
	C84,34.6,82.4,33.6,82.4,31.3L82.4,31.3z M95.6,31.3V17.2h-9.6v14.1H95.6z"/>
<path class="st0" d="M119.5,13.8V31c0,1.9-1.2,3.6-3.5,3.6h-9.8c-1.9,0-3.5-1-3.5-3.4V13.8h3.8v17.5h9.2V13.8H119.5z"/>
<linearGradient id="SVGID_1_" gradientUnits="userSpaceOnUse" x1="120.311" y1="0.2032" x2="173.097" y2="22.3402" gradientTransform="matrix(1 0 0 1 0 19.8583)">
	<stop  offset="0" style="stop-color:#E959FF"/>
	<stop  offset="0.97" style="stop-color:#19FB9B"/>
</linearGradient>
<path class="st1" d="M123,13.8h13.7c2.3,0,3,1.4,3,3.8V31c0,1.8-1.2,3.6-3.6,3.6H123C123,34.6,123,13.8,123,13.8z M135.9,31.3V17.2
	h-9.2v14.1H135.9z"/>
<linearGradient id="SVGID_00000098914644354706682430000007301402460265704837_" gradientUnits="userSpaceOnUse" x1="126.0372" y1="-13.4499" x2="178.8232" y2="8.6903" gradientTransform="matrix(1 0 0 1 0 19.8583)">
	<stop  offset="0" style="stop-color:#E959FF"/>
	<stop  offset="0.97" style="stop-color:#19FB9B"/>
</linearGradient>
<path style="fill:url(#SVGID_00000098914644354706682430000007301402460265704837_);" d="M168.7,26.7l-5.1,8h-4.3l7-10.7l-6.5-10.2
	h4.3l4.6,7.4l4.6-7.4h4.3L171.1,24l6.9,10.6h-4.3L168.7,26.7L168.7,26.7z"/>
<linearGradient id="SVGID_00000124853145572741561410000014693855449911260305_" gradientUnits="userSpaceOnUse" x1="123.2978" y1="-6.9189" x2="176.0848" y2="15.2214" gradientTransform="matrix(1 0 0 1 0 19.8583)">
	<stop  offset="0" style="stop-color:#E959FF"/>
	<stop  offset="0.97" style="stop-color:#19FB9B"/>
</linearGradient>
<path style="fill:url(#SVGID_00000124853145572741561410000014693855449911260305_);" d="M146.9,31.4v-5.7h16.2l1.2-1.8l-0.9-1.4
	h-16.4V17h12.5l-2.1-3.2h-14.2v20.8h13.7l2.1-3.2H146.9z"/>
<linearGradient id="SVGID_00000179610151912346406260000015487535623370897589_" gradientUnits="userSpaceOnUse" x1="6.3961" y1="-12.3514" x2="46.9125" y2="24.4787" gradientTransform="matrix(1 0 0 1 0 19.8583)">
	<stop  offset="0" style="stop-color:#E959FF"/>
	<stop  offset="0.97" style="stop-color:#19FB9B"/>
</linearGradient>
<path style="fill:url(#SVGID_00000179610151912346406260000015487535623370897589_);" d="M44.7,46.8L57,26.4L44.9,6.6l-0.1,0.2
	l0.1-0.2h-9.9L38.9,0H13.2L1.9,19l-1.5,2.5l5.6,6.7H0L11.3,49H37l4.3-8L44.7,46.8L44.7,46.8z M35,45.3l-9.3-17.1H9.9l-5.6-6.7h21.8
	L33.6,9h9.6L32.1,25.3l7.2,12.3L35,45.3z"/>
<linearGradient id="SVGID_00000148649297927655360640000016749037894874129831_" gradientUnits="userSpaceOnUse" x1="48.2821" y1="-0.175" x2="63.4724" y2="13.6334" gradientTransform="matrix(1 0 0 1 0 19.8583)">
	<stop  offset="0" style="stop-color:#E959FF"/>
	<stop  offset="0.97" style="stop-color:#19FB9B"/>
</linearGradient>
<path style="fill:url(#SVGID_00000148649297927655360640000016749037894874129831_);" d="M65.2,26.4l-9.4,15.6l-1.3-2.3L53,37.1
	l6.5-10.7l-6.5-10.6l1.5-2.2l1.5-2.2l-0.1,0.1l0.1-0.1L65.2,26.4z"/>
</svg>
