<?xml version="1.0" encoding="utf-8"?>
<!-- Generator: Adobe Illustrator 26.4.1, SVG Export Plug-In . SVG Version: 6.00 Build 0)  -->
<svg version="1.1" id="katman_1" xmlns="http://www.w3.org/2000/svg" xmlns:xlink="http://www.w3.org/1999/xlink" x="0px" y="0px"
	 viewBox="0 0 178 49" style="enable-background:new 0 0 178 49;" xml:space="preserve">
<style type="text/css">
	.st0{fill:#FFFFFF;}
	.st1{fill:url(#SVGID_1_);}
	.st2{fill:url(#SVGID_00000053506128531531986090000006881485243364789932_);}
	.st3{fill:url(#SVGID_00000124858639038011918120000014021528636408957324_);}
	.st4{fill:url(#SVGID_00000049922833028185065800000016977932321950741683_);}
	.st5{fill:url(#SVGID_00000002364670066455899480000007626315565107878801_);}
</style>
<path class="st0" d="M70.2,34.6v-8.3L63,13.8h4l5.1,9.2h0.1l5.1-9.2h4.1L74,26.3v8.3H70.2L70.2,34.6z"/>
<path class="st0" d="M82.4,31.3V16.7c0-2,1.2-2.9,3.1-2.9h10.8c2.3,0,3,1.4,3,3.8v13.5c0,1.9-1.2,3.6-3.6,3.6h-9.9
	C84,34.6,82.4,33.6,82.4,31.3L82.4,31.3z M95.6,31.3V17.2H86v14.1C86,31.3,95.6,31.3,95.6,31.3z"/>
<path class="st0" d="M119.5,13.8V31c0,1.9-1.2,3.6-3.5,3.6h-9.8c-1.9,0-3.5-1-3.5-3.4V13.8h3.8v17.5h9.2V13.8H119.5z"/>
<linearGradient id="SVGID_1_" gradientUnits="userSpaceOnUse" x1="120.3237" y1="49.8271" x2="173.1097" y2="27.6901" gradientTransform="matrix(1 0 0 -1 0 69.8583)">
	<stop  offset="0" style="stop-color:#E959FF"/>
	<stop  offset="0.97" style="stop-color:#19FB9B"/>
</linearGradient>
<path class="st1" d="M123,13.8h13.7c2.3,0,3,1.4,3,3.8V31c0,1.8-1.2,3.6-3.6,3.6H123V13.8z M135.9,31.3V17.2h-9.2v14.1
	C126.7,31.3,135.9,31.3,135.9,31.3z"/>
<linearGradient id="SVGID_00000118390585043606848080000013487895623167830916_" gradientUnits="userSpaceOnUse" x1="126.0186" y1="63.4055" x2="178.8046" y2="41.2653" gradientTransform="matrix(1 0 0 -1 0 69.8583)">
	<stop  offset="0" style="stop-color:#E959FF"/>
	<stop  offset="0.97" style="stop-color:#19FB9B"/>
</linearGradient>
<path style="fill:url(#SVGID_00000118390585043606848080000013487895623167830916_);" d="M168.7,26.7l-5.1,8h-4.3l7-10.7l-6.5-10.2
	h4.3l4.6,7.4l4.6-7.4h4.3L171.1,24l6.9,10.6h-4.3L168.7,26.7L168.7,26.7z"/>
<linearGradient id="SVGID_00000027594694469656731960000000783747585067435160_" gradientUnits="userSpaceOnUse" x1="123.3209" y1="56.9741" x2="176.1079" y2="34.8338" gradientTransform="matrix(1 0 0 -1 0 69.8583)">
	<stop  offset="0" style="stop-color:#E959FF"/>
	<stop  offset="0.97" style="stop-color:#19FB9B"/>
</linearGradient>
<path style="fill:url(#SVGID_00000027594694469656731960000000783747585067435160_);" d="M146.9,31.4v-5.7h16.2l1.2-1.8l-0.9-1.4
	H147V17h12.5l-2.1-3.2h-14.2v20.8h13.7l2.1-3.2C159,31.4,146.9,31.4,146.9,31.4z"/>
<linearGradient id="SVGID_00000031172934193546181900000014745525429418274195_" gradientUnits="userSpaceOnUse" x1="6.3897" y1="62.3663" x2="46.9315" y2="25.5131" gradientTransform="matrix(1 0 0 -1 0 69.8583)">
	<stop  offset="0" style="stop-color:#E959FF"/>
	<stop  offset="0.97" style="stop-color:#19FB9B"/>
</linearGradient>
<path style="fill:url(#SVGID_00000031172934193546181900000014745525429418274195_);" d="M44.7,46.8L57,26.4L44.9,6.6l-0.1,0.2
	l0.1-0.2H35L38.9,0H13.2L1.9,19l-1.5,2.5L6,28.2H0L11.3,49H37l4.3-8L44.7,46.8L44.7,46.8z M35,45.3l-9.3-17.1H9.9l-5.6-6.7h21.8
	L33.6,9h9.6L32.1,25.3l7.2,12.3L35,45.3z"/>
<linearGradient id="SVGID_00000152975193522959265150000005881799051631602052_" gradientUnits="userSpaceOnUse" x1="48.2364" y1="50.1247" x2="63.4267" y2="36.3163" gradientTransform="matrix(1 0 0 -1 0 69.8583)">
	<stop  offset="0" style="stop-color:#E959FF"/>
	<stop  offset="0.97" style="stop-color:#19FB9B"/>
</linearGradient>
<path style="fill:url(#SVGID_00000152975193522959265150000005881799051631602052_);" d="M65.2,26.4L55.8,42l-1.3-2.3L53,37.1
	l6.5-10.7L53,15.8l1.5-2.2l1.5-2.2l-0.1,0.1l0.1-0.1L65.2,26.4z"/>
</svg>
