<svg xmlns="http://www.w3.org/2000/svg" xmlns:xlink="http://www.w3.org/1999/xlink" width="0" height="0" style="display:none;"><symbol viewBox="0 0 1024 1024" id="youdex-font-switch-38"><path d="M886.2 604.8H137.8c-22.1 0-40 17.9-40 40 0 8.4 2.6 16.2 7 22.6 1.9 4.5 4.8 8.7 8.4 12.4L289.5 856c7.8 7.8 18 11.7 28.3 11.7s20.5-3.9 28.3-11.7c15.6-15.6 15.6-40.9 0-56.6L231.3 684.8h654.8c22.1 0 40-17.9 40-40s-17.8-40-39.9-40zM137.8 419.2h748.4c22.1 0 40-17.9 40-40 0-8.4-2.6-16.2-7-22.6-1.4-3.3-3.4-6.5-5.8-9.5L769.2 170.9c-14-17.1-39.2-19.6-56.3-5.6-17.1 14-19.6 39.2-5.6 56.3l96.3 117.6H137.8c-22.1 0-40 17.9-40 40s17.9 40 40 40z"></path></symbol><symbol viewBox="0 0 1133.86 1133.86" id="youdex-font-u2-dark">
<style type="text/css">
	.st0{fill:#010202;}
</style>
<g>
	<polygon class="st0" points="767.55,230.67 767.55,902.3 670.85,902.3 670.85,232.82 456.1,20.39 456.1,902.3 673.72,1115.62 
		767.55,1115.62 983.01,900.15 983.01,18.24 	"></polygon>
	<polygon class="st0" points="366.31,18.24 366.31,902.07 150.85,1103.34 150.84,230.67 	"></polygon>
	<polyline class="st0" points="366.31,18.24 456.1,20.22 456.1,232.82 366.31,232.82 	"></polyline>
	<polygon class="st0" points="534.54,18.43 904.26,18.43 718.2,198.69 	"></polygon>
	<polygon class="st0" points="223.35,1115.62 581.99,1115.62 407,935.36 	"></polygon>
</g>
</symbol><symbol viewBox="0 0 1133.86 1133.86" id="youdex-font-u2">
<style type="text/css">
	.st0{fill:url(#SVGID_1_);}
	.st1{fill:url(#SVGID_00000124876401391400533070000000578875900556780677_);}
	.st2{fill:url(#SVGID_00000053508483840673270590000008219565108775733123_);}
	.st3{fill:url(#SVGID_00000060730131003510611330000006621979730666939832_);}
	.st4{fill:url(#SVGID_00000142890522796520507670000018152073402378867878_);}
</style>
<g>
	<lineargradient id="SVGID_1_" gradientunits="userSpaceOnUse" x1="161.6354" y1="1179.9578" x2="1016.9273" y2="76.6818">
		<stop offset="0" style="stop-color:#A96DAB"></stop>
		<stop offset="0.97" style="stop-color:#6FBC83"></stop>
	</lineargradient>
	<polygon class="st0" points="767.55,230.67 767.55,902.3 670.85,902.3 670.85,232.82 456.1,20.39 456.1,902.3 673.72,1115.62 
		767.55,1115.62 983.01,900.15 983.01,18.24 	"></polygon>
	
		<lineargradient id="SVGID_00000052106110376670383410000004666765399896591261_" gradientunits="userSpaceOnUse" x1="-74.926" y1="996.5685" x2="780.3659" y2="-106.7075">
		<stop offset="0" style="stop-color:#A96DAB"></stop>
		<stop offset="0.97" style="stop-color:#6FBC83"></stop>
	</lineargradient>
	<polygon style="fill:url(#SVGID_00000052106110376670383410000004666765399896591261_);" points="366.31,18.24 366.31,902.07 
		150.85,1103.34 150.84,230.67 	"></polygon>
	
		<lineargradient id="SVGID_00000171681140075386089210000008349014385850642569_" gradientunits="userSpaceOnUse" x1="-193.0544" y1="904.9919" x2="662.2375" y2="-198.2841">
		<stop offset="0" style="stop-color:#A96DAB"></stop>
		<stop offset="0.97" style="stop-color:#6FBC83"></stop>
	</lineargradient>
	<polyline style="fill:url(#SVGID_00000171681140075386089210000008349014385850642569_);" points="366.31,18.24 456.1,20.22 
		456.1,232.82 366.31,232.82 	"></polyline>
	
		<lineargradient id="SVGID_00000108267688308458287090000006407228857060351670_" gradientunits="userSpaceOnUse" x1="-52.4115" y1="1014.0224" x2="802.8804" y2="-89.2536">
		<stop offset="0" style="stop-color:#A96DAB"></stop>
		<stop offset="0.97" style="stop-color:#6FBC83"></stop>
	</lineargradient>
	<polygon style="fill:url(#SVGID_00000108267688308458287090000006407228857060351670_);" points="534.54,18.43 904.26,18.43 
		718.2,198.69 	"></polygon>
	
		<lineargradient id="SVGID_00000020388493654803985570000004764820010021728665_" gradientunits="userSpaceOnUse" x1="279.9032" y1="1273.972" x2="1135.1951" y2="170.696">
		<stop offset="0" style="stop-color:#A96DAB"></stop>
		<stop offset="0.97" style="stop-color:#6FBC83"></stop>
	</lineargradient>
	<polygon style="fill:url(#SVGID_00000020388493654803985570000004764820010021728665_);" points="223.35,1115.62 581.99,1115.62 
		407,935.36 	"></polygon>
</g>
</symbol><symbol viewBox="0 0 226.777 226.777" id="youdex-font-usdt"><path d="M226.883,107.66c0-14.245-38.761-26.13-90.27-28.872l-0.004-22.697h64.315V8.855H25.06v47.236h64.31v22.808  C38.799,81.829,0.97,93.59,0.97,107.66c0,14.072,37.829,25.834,88.4,28.759v81.504h47.239V136.53  C188.122,133.794,226.883,121.905,226.883,107.66z M113.926,121.693c-55.288,0-100.109-8.557-100.109-19.119  c0-8.943,32.139-16.451,75.553-18.54v5.383h0.005v22.059c7.827,0.439,16.053,0.669,24.551,0.669c7.825,0,15.424-0.199,22.688-0.563  V83.952c44.355,1.961,77.423,9.548,77.423,18.622C214.036,113.136,169.214,121.693,113.926,121.693z" fill="#231F20"></path></symbol><symbol viewBox="0 0 70.87 70.87" id="youdex-font-youdex-icon">
<style type="text/css">
	.st0{fill:#FFFFFF;}
	.st1{fill:url(#SVGID_1_);}
	.st2{fill:url(#SVGID_00000116204544327686633980000013078545165715641780_);}
</style>
<path class="st0" d="M5.23,30.95l6.04,7.48l16.91,0.72l8.73,16.58h1.58l5.02-8.83L36.73,35.1l10.31-16.58l-12.36-1.17l-12.45,9.82
	L5.23,30.95z"></path>
<lineargradient id="SVGID_1_" gradientunits="userSpaceOnUse" x1="9.2371" y1="36.6597" x2="49.7573" y2="-0.1736" gradienttransform="matrix(1 0 0 -1 0 53.8308)">
	<stop offset="0" style="stop-color:#E959FF"></stop>
	<stop offset="0.97" style="stop-color:#19FB9B"></stop>
</lineargradient>
<path class="st1" d="M47.55,56.43l12.26-20.4L47.7,16.27l-0.11,0.16l0.09-0.16h-9.9l3.91-6.6H16.06L4.77,28.69l-1.46,2.45l5.59,6.71
	H2.84l11.32,20.81h25.65l4.34-8.04L47.55,56.43L47.55,56.43z M37.82,55.01l-9.33-17.14H12.77l-5.61-6.71h21.8l7.53-12.5h9.58
	L34.96,34.99l7.2,12.26L37.82,55.01z"></path>
<lineargradient id="SVGID_00000090287694571087156410000002215451943552214940_" gradientunits="userSpaceOnUse" x1="51.1252" y1="24.4783" x2="66.3189" y2="10.6669" gradienttransform="matrix(1 0 0 -1 0 53.8308)">
	<stop offset="0" style="stop-color:#E959FF"></stop>
	<stop offset="0.97" style="stop-color:#19FB9B"></stop>
</lineargradient>
<path style="fill:url(#SVGID_00000090287694571087156410000002215451943552214940_);" d="M68.02,36.02l-9.36,15.56l-1.34-2.28
	l-1.49-2.55l6.45-10.73l-6.52-10.64l1.51-2.22l1.5-2.22l-0.07,0.12l0.08-0.12L68.02,36.02z"></path>
</symbol><symbol viewBox="0 0 178 49" id="youdex-font-youdex">
<style type="text/css">
	.st0{fill:#111111;}
	.st1{fill:url(#SVGID_1_);}
	.st2{fill:url(#SVGID_00000021834253715038328540000010470034154119341192_);}
	.st3{fill:url(#SVGID_00000170992558913146333200000015178489315390472115_);}
	.st4{fill:#FFFFFF;}
	.st5{fill:url(#SVGID_00000058571493101488343060000000730373902819833489_);}
	.st6{fill:url(#SVGID_00000134213111248804514370000005605435612230048181_);}
</style>
<path class="st0" d="M70.21,34.63V26.3l-7.24-12.5h4.07l5.06,9.23h0.07l5.06-9.23h4.07l-7.3,12.5v8.33H70.21L70.21,34.63z"></path>
<path class="st0" d="M82.37,31.27V16.69c0-2.02,1.25-2.88,3.11-2.88h10.84c2.31,0,3.04,1.38,3.04,3.75v13.49
	c0,1.89-1.22,3.59-3.6,3.59h-9.88C83.99,34.63,82.37,33.64,82.37,31.27L82.37,31.27z M95.62,31.27v-14.1h-9.55v14.1H95.62z"></path>
<path class="st0" d="M119.48,13.8v17.24c0,1.89-1.15,3.59-3.5,3.59h-9.78c-1.88,0-3.47-0.99-3.47-3.36V13.8h3.77v17.47h9.22V13.8
	H119.48z"></path>
<lineargradient id="SVGID_1_" gradientunits="userSpaceOnUse" x1="120.3122" y1="29.7997" x2="173.0982" y2="7.6627" gradienttransform="matrix(1 0 0 -1 0 49.8583)">
	<stop offset="0" style="stop-color:#E959FF"></stop>
	<stop offset="0.97" style="stop-color:#19FB9B"></stop>
</lineargradient>
<path class="st1" d="M122.98,13.8h13.68c2.31,0,2.97,1.44,2.97,3.85v13.4c0,1.8-1.19,3.59-3.6,3.59h-13.05V13.8z M135.94,31.27
	v-14.1h-9.19v14.1H135.94z"></path>
<lineargradient id="SVGID_00000103959267248610808420000011181340576425241279_" gradientunits="userSpaceOnUse" x1="126.0399" y1="43.4562" x2="178.8259" y2="21.316" gradienttransform="matrix(1 0 0 -1 0 49.8583)">
	<stop offset="0" style="stop-color:#E959FF"></stop>
	<stop offset="0.97" style="stop-color:#19FB9B"></stop>
</lineargradient>
<path style="fill:url(#SVGID_00000103959267248610808420000011181340576425241279_);" d="M168.72,26.66l-5.06,7.98h-4.3l7-10.67
	l-6.47-10.16h4.33l4.56,7.43l4.59-7.43h4.3l-6.57,10.19l6.9,10.64h-4.33L168.72,26.66L168.72,26.66z"></path>
<lineargradient id="SVGID_00000065035853186506985050000010683824518534481559_" gradientunits="userSpaceOnUse" x1="123.2974" y1="36.9179" x2="176.0844" y2="14.7776" gradienttransform="matrix(1 0 0 -1 0 49.8583)">
	<stop offset="0" style="stop-color:#E959FF"></stop>
	<stop offset="0.97" style="stop-color:#19FB9B"></stop>
</lineargradient>
<path style="fill:url(#SVGID_00000065035853186506985050000010683824518534481559_);" d="M146.88,31.4v-5.67h16.18l1.16-1.76
	l-0.9-1.41h-16.43v-5.51h12.49l-2.06-3.24h-14.23v20.83h13.7l2.12-3.24H146.88z"></path>
<path class="st4" d="M2.39,21.29l6.04,7.48l16.91,0.72l8.73,16.58h1.58l5.02-8.83l-6.78-11.81L44.2,8.85L31.84,7.68L19.39,17.5
	L2.39,21.29z"></path>
<lineargradient id="SVGID_00000176040723392380385410000010957718534081586832_" gradientunits="userSpaceOnUse" x1="6.3956" y1="42.3542" x2="46.9157" y2="5.5208" gradienttransform="matrix(1 0 0 -1 0 49.8583)">
	<stop offset="0" style="stop-color:#E959FF"></stop>
	<stop offset="0.97" style="stop-color:#19FB9B"></stop>
</lineargradient>
<path style="fill:url(#SVGID_00000176040723392380385410000010957718534081586832_);" d="M44.71,46.76l12.26-20.4L44.86,6.6
	l-0.11,0.16l0.09-0.16h-9.9L38.86,0H13.22L1.93,19.02l-1.46,2.45l5.59,6.71H0L11.32,49h25.65l4.34-8.04L44.71,46.76L44.71,46.76z
	 M34.98,45.34L25.65,28.2H9.93l-5.61-6.71h21.8l7.53-12.5h9.58L32.12,25.32l7.2,12.26L34.98,45.34z"></path>
<lineargradient id="SVGID_00000167391471291498951510000000736530251832535483_" gradientunits="userSpaceOnUse" x1="48.2836" y1="30.1727" x2="63.4773" y2="16.3613" gradienttransform="matrix(1 0 0 -1 0 49.8583)">
	<stop offset="0" style="stop-color:#E959FF"></stop>
	<stop offset="0.97" style="stop-color:#19FB9B"></stop>
</lineargradient>
<path style="fill:url(#SVGID_00000167391471291498951510000000736530251832535483_);" d="M65.18,26.35l-9.36,15.56l-1.34-2.28
	l-1.49-2.55l6.45-10.73l-6.52-10.64l1.51-2.22l1.5-2.22l-0.07,0.12l0.08-0.12L65.18,26.35z"></path>
</symbol></svg>